<svg width="8" height="5" viewBox="0 0 8 5" fill="none" xmlns="http://www.w3.org/2000/svg">
<path d="M3.99373 4.99831C3.86044 4.99864 3.73128 4.94054 3.62865 4.83411L0.206069 1.26453C0.0895779 1.14335 0.0163207 0.969215 0.00241378 0.780437C-0.0114932 0.591658 0.0350893 0.403697 0.131913 0.257904C0.228737 0.11211 0.367872 0.020426 0.518708 0.00302095C0.669545 -0.0143841 0.819728 0.0439153 0.93622 0.165095L3.99373 3.36344L7.05123 0.279322C7.10958 0.22002 7.17672 0.175734 7.24878 0.149011C7.32085 0.122288 7.39643 0.113654 7.47117 0.123605C7.54591 0.133557 7.61835 0.161897 7.68431 0.206998C7.75027 0.252099 7.80846 0.313071 7.85554 0.386409C7.90778 0.459815 7.94734 0.545932 7.97175 0.639365C7.99616 0.732798 8.00489 0.831533 7.99739 0.929385C7.9899 1.02724 7.96634 1.1221 7.92818 1.20802C7.89003 1.29395 7.83811 1.36908 7.77568 1.42873L4.3531 4.87695C4.24752 4.96655 4.12099 5.00928 3.99373 4.99831Z" fill="#4E4E4E"/>
</svg>
