<svg width="210" height="42" viewBox="0 0 210 42" fill="none" xmlns="http://www.w3.org/2000/svg">
<g clip-path="url(#clip0_66_54)">
<path d="M62.4207 8.4C65.164 8.4 67.4432 9.10543 69.2581 10.5163C71.073 11.9272 72.2969 13.8403 72.93 16.2558H69.0998C68.5723 14.8878 67.7281 13.8083 66.5674 13.0173C65.4279 12.205 64.0245 11.7989 62.3574 11.7989C61.0279 11.7989 59.8357 12.1303 58.7805 12.7929C57.7464 13.4555 56.9234 14.4068 56.3114 15.6467C55.7205 16.8651 55.4251 18.2973 55.4251 19.9434C55.4251 21.5679 55.7205 23.0002 56.3114 24.24C56.9234 25.4585 57.7464 26.3991 58.7805 27.0617C59.8357 27.7244 61.0279 28.0557 62.3574 28.0557C64.0245 28.0557 65.4279 27.6603 66.5674 26.8693C67.7281 26.057 68.5723 24.9775 69.0998 23.6308H72.93C72.2969 26.0464 71.073 27.9596 69.2581 29.3704C67.4432 30.7599 65.164 31.4546 62.4207 31.4546C60.3105 31.4546 58.4428 30.9736 56.8179 30.0117C55.193 29.0284 53.9373 27.6709 53.051 25.9394C52.1647 24.1866 51.7216 22.1878 51.7216 19.9434C51.7216 17.6988 52.1647 15.7108 53.051 13.9793C53.9373 12.2264 55.193 10.8583 56.8179 9.87495C58.4428 8.89165 60.3105 8.4 62.4207 8.4ZM84.507 13.37C86.1956 13.37 87.7151 13.7335 89.0656 14.4603C90.4161 15.187 91.4712 16.2345 92.231 17.6026C92.9907 18.9706 93.3706 20.5739 93.3706 22.4123C93.3706 24.272 92.9907 25.886 92.231 27.2541C91.4712 28.6222 90.4161 29.6697 89.0656 30.3965C87.7151 31.1233 86.1956 31.4866 84.507 31.4866C82.8193 31.4866 81.2999 31.1233 79.9488 30.3965C78.6193 29.6697 77.5645 28.6222 76.7836 27.2541C76.0239 25.8646 75.6441 24.2507 75.6441 22.4123C75.6441 20.5739 76.0239 18.9706 76.7836 17.6026C77.5645 16.2345 78.6193 15.187 79.9488 14.4603C81.2999 13.7335 82.8193 13.37 84.507 13.37ZM84.507 16.5445C83.579 16.5445 82.7243 16.7582 81.943 17.1857C81.1625 17.6133 80.5294 18.276 80.0437 19.1738C79.5798 20.0502 79.3473 21.1297 79.3473 22.4123C79.3473 23.7163 79.5798 24.8065 80.0437 25.6829C80.5294 26.5594 81.1625 27.2114 81.943 27.6389C82.7243 28.0664 83.579 28.2802 84.507 28.2802C85.4359 28.2802 86.2904 28.0664 87.0706 27.6389C87.8526 27.2114 88.4749 26.5594 88.9384 25.6829C89.4242 24.8065 89.6666 23.7163 89.6666 22.4123C89.6666 21.1297 89.4242 20.0502 88.9384 19.1738C88.4749 18.276 87.8526 17.6133 87.0706 17.1857C86.2904 16.7582 85.4359 16.5445 84.507 16.5445ZM118.65 13.3059C120.718 13.3059 122.364 13.9685 123.588 15.294C124.833 16.6193 125.455 18.5112 125.455 20.9694V31.2622H121.847V21.3542C121.847 19.8151 121.467 18.6287 120.707 17.795C119.948 16.9399 118.903 16.5124 117.574 16.5124C116.16 16.5124 115.03 16.972 114.186 17.8912C113.363 18.789 112.952 20.1144 112.952 21.8672V31.2622H109.343V21.3542C109.343 19.8151 108.964 18.6287 108.204 17.795C107.444 16.9399 106.399 16.5124 105.07 16.5124C103.656 16.5124 102.527 16.972 101.683 17.8912C100.86 18.789 100.448 20.1144 100.448 21.8672V31.2622H96.8399V13.5945H100.448V17.282C100.891 15.9994 101.631 15.0161 102.664 14.332C103.698 13.6479 104.912 13.3059 106.304 13.3059C107.761 13.3059 109.016 13.6693 110.072 14.3961C111.148 15.1229 111.928 16.1704 112.414 17.5384C112.92 16.2131 113.733 15.1764 114.851 14.4282C115.97 13.68 117.236 13.3059 118.65 13.3059ZM139.672 13.37C141.192 13.37 142.542 13.7335 143.724 14.4603C144.926 15.187 145.866 16.2345 146.541 17.6026C147.216 18.9706 147.554 20.5739 147.554 22.4123C147.554 24.272 147.216 25.886 146.541 27.2541C145.866 28.6222 144.926 29.6697 143.724 30.3965C142.542 31.1233 141.192 31.4866 139.672 31.4866C138.09 31.4866 136.738 31.0912 135.621 30.3003C134.502 29.5094 133.721 28.4619 133.278 27.1579V39.6632H129.669V13.5945H133.278V17.6988C133.721 16.3949 134.502 15.3474 135.621 14.5564C136.738 13.7655 138.09 13.37 139.672 13.37ZM138.564 16.5766C137.552 16.5766 136.643 16.8223 135.842 17.314C135.039 17.7843 134.407 18.4683 133.942 19.3662C133.478 20.2427 133.247 21.258 133.247 22.4123C133.247 23.588 133.478 24.6141 133.942 25.4906C134.407 26.367 135.039 27.051 135.842 27.5427C136.643 28.013 137.552 28.2481 138.564 28.2481C140.168 28.2481 141.455 27.7351 142.426 26.7091C143.397 25.6616 143.882 24.2293 143.882 22.4123C143.882 20.6167 143.397 19.1952 142.426 18.1477C141.455 17.1003 140.168 16.5766 138.564 16.5766ZM158.026 13.37C159.609 13.37 160.958 13.7655 162.077 14.5564C163.196 15.3474 163.987 16.3949 164.451 17.6988V13.5945H168.06V31.2622H164.451V27.1579C163.987 28.4619 163.196 29.5094 162.077 30.3003C160.958 31.0912 159.609 31.4866 158.026 31.4866C156.506 31.4866 155.145 31.1233 153.942 30.3965C152.761 29.6697 151.832 28.6222 151.156 27.2541C150.481 25.886 150.143 24.272 150.143 22.4123C150.143 20.5739 150.481 18.9706 151.156 17.6026C151.832 16.2345 152.761 15.187 153.942 14.4603C155.145 13.7335 156.506 13.37 158.026 13.37ZM159.133 16.5766C157.529 16.5766 156.242 17.1003 155.272 18.1477C154.322 19.1738 153.847 20.5954 153.847 22.4123C153.847 24.2293 154.322 25.6616 155.272 26.7091C156.242 27.7351 157.529 28.2481 159.133 28.2481C160.146 28.2481 161.054 28.013 161.855 27.5427C162.657 27.051 163.29 26.367 163.755 25.4906C164.219 24.6141 164.451 23.588 164.451 22.4123C164.451 21.258 164.219 20.2427 163.755 19.3662C163.29 18.4683 162.657 17.7843 161.855 17.314C161.054 16.8223 160.146 16.5766 159.133 16.5766ZM182.14 13.3059C184.166 13.3059 185.79 13.9685 187.014 15.294C188.239 16.6193 188.851 18.5112 188.851 20.9694V31.2622H185.242V21.3542C185.242 19.7723 184.841 18.5538 184.039 17.6988C183.237 16.8223 182.14 16.3841 180.747 16.3841C179.312 16.3841 178.162 16.8544 177.297 17.795C176.432 18.7142 175.999 20.0716 175.999 21.8672V31.2622H172.39V13.5945H175.999V17.4743C176.463 16.149 177.243 15.1229 178.341 14.3961C179.439 13.6693 180.705 13.3059 182.14 13.3059ZM195.128 13.5945L200.351 26.5808L205.195 13.5945H209.215L198.674 39.6632H194.654L198.42 30.8454L191.077 13.5945H195.128Z" fill="#4E4E4E"/>
<path d="M40.1219 2.52H2.56091V39.48H40.1219V2.52Z" stroke="#8145DD" stroke-width="6"/>
<path d="M29.878 12.6H12.8048V29.4H29.878V12.6Z" fill="#5DD5E9"/>
</g>
<defs>
<clipPath id="clip0_66_54">
<rect width="210" height="42" fill="white"/>
</clipPath>
</defs>
</svg>
