<svg width="30" height="30" viewBox="0 0 30 30" fill="none" xmlns="http://www.w3.org/2000/svg">
<path d="M5 16.25H12.5C12.8315 16.25 13.1495 16.1183 13.3839 15.8839C13.6183 15.6495 13.75 15.3315 13.75 15V5C13.75 4.66848 13.6183 4.35054 13.3839 4.11612C13.1495 3.8817 12.8315 3.75 12.5 3.75H5C4.66848 3.75 4.35054 3.8817 4.11612 4.11612C3.8817 4.35054 3.75 4.66848 3.75 5V15C3.75 15.3315 3.8817 15.6495 4.11612 15.8839C4.35054 16.1183 4.66848 16.25 5 16.25ZM3.75 25C3.75 25.3315 3.8817 25.6495 4.11612 25.8839C4.35054 26.1183 4.66848 26.25 5 26.25H12.5C12.8315 26.25 13.1495 26.1183 13.3839 25.8839C13.6183 25.6495 13.75 25.3315 13.75 25V20C13.75 19.6685 13.6183 19.3505 13.3839 19.1161C13.1495 18.8817 12.8315 18.75 12.5 18.75H5C4.66848 18.75 4.35054 18.8817 4.11612 19.1161C3.8817 19.3505 3.75 19.6685 3.75 20V25ZM16.25 25C16.25 25.3315 16.3817 25.6495 16.6161 25.8839C16.8505 26.1183 17.1685 26.25 17.5 26.25H25C25.3315 26.25 25.6495 26.1183 25.8839 25.8839C26.1183 25.6495 26.25 25.3315 26.25 25V16.25C26.25 15.9185 26.1183 15.6005 25.8839 15.3661C25.6495 15.1317 25.3315 15 25 15H17.5C17.1685 15 16.8505 15.1317 16.6161 15.3661C16.3817 15.6005 16.25 15.9185 16.25 16.25V25ZM17.5 12.5H25C25.3315 12.5 25.6495 12.3683 25.8839 12.1339C26.1183 11.8995 26.25 11.5815 26.25 11.25V5C26.25 4.66848 26.1183 4.35054 25.8839 4.11612C25.6495 3.8817 25.3315 3.75 25 3.75H17.5C17.1685 3.75 16.8505 3.8817 16.6161 4.11612C16.3817 4.35054 16.25 4.66848 16.25 5V11.25C16.25 11.5815 16.3817 11.8995 16.6161 12.1339C16.8505 12.3683 17.1685 12.5 17.5 12.5Z" fill="white"/>
</svg>
