<svg width="20" height="21" viewBox="0 0 20 21" fill="none" xmlns="http://www.w3.org/2000/svg">
<path d="M9.96091 2.16663C5.38758 2.16663 1.66675 5.90496 1.66675 10.5C1.66675 15.095 5.40508 18.8333 10.0001 18.8333C14.5951 18.8333 18.3334 15.095 18.3334 10.5C18.3334 5.90496 14.5776 2.16663 9.96091 2.16663ZM10.0001 17.1666C6.32425 17.1666 3.33341 14.1758 3.33341 10.5C3.33341 6.82413 6.30591 3.83329 9.96091 3.83329C13.6592 3.83329 16.6667 6.82413 16.6667 10.5C16.6667 14.1758 13.6759 17.1666 10.0001 17.1666Z" fill="#FF3535"/>
<path d="M9.16675 6.33337H10.8334V12.1667H9.16675V6.33337ZM9.16675 13H10.8334V14.6667H9.16675V13Z" fill="#FF3535"/>
</svg>
