<?xml version="1.0" encoding="UTF-8" standalone="no"?>
<!DOCTYPE svg PUBLIC "-//W3C//DTD SVG 1.1//EN" "http://www.w3.org/Graphics/SVG/1.1/DTD/svg11.dtd">
<svg width="100%" height="100%" viewBox="0 0 800 800" version="1.1" xmlns="http://www.w3.org/2000/svg" xmlns:xlink="http://www.w3.org/1999/xlink" xml:space="preserve" xmlns:serif="http://www.serif.com/" style="fill-rule:evenodd;clip-rule:evenodd;stroke-linejoin:round;stroke-miterlimit:1.41421;">
    <g id="Path_112" transform="matrix(1,0,0,1,952.452,-150.443)">
        <path d="M-189.24,461.649L-210.132,440.756C-300.793,349.866 -424.076,298.805 -552.452,298.977C-680.827,298.805 -804.11,349.866 -894.771,440.756L-915.663,461.649C-939.208,485.187 -952.45,517.15 -952.45,550.443C-952.45,583.735 -939.208,615.698 -915.663,639.237L-894.771,660.129C-804.11,751.02 -680.827,802.08 -552.452,801.908C-424.076,802.08 -300.793,751.02 -210.132,660.129L-189.24,639.237C-165.695,615.698 -152.453,583.735 -152.453,550.443C-152.453,517.15 -165.695,485.187 -189.24,461.649ZM-552.452,349.551C-538.676,349.551 -527.34,360.887 -527.34,374.663C-527.34,388.438 -538.676,399.774 -552.452,399.774C-607.554,399.774 -652.897,445.117 -652.897,500.22C-652.897,513.995 -664.233,525.331 -678.009,525.331C-691.784,525.331 -703.12,513.995 -703.12,500.22C-703.12,417.565 -635.106,349.551 -552.452,349.551ZM-224.747,603.729L-245.64,624.622C-326.799,706.228 -437.359,752.016 -552.452,751.686C-667.544,752.016 -778.104,706.228 -859.263,624.622L-880.156,603.729C-894.309,589.622 -902.251,570.426 -902.204,550.443C-902.251,530.459 -894.309,511.263 -880.156,497.156L-859.263,476.263C-817.399,434.362 -767.382,401.49 -712.311,379.685C-738.81,414.282 -753.229,456.641 -753.343,500.22C-753.343,610.426 -662.657,701.111 -552.452,701.111C-442.246,701.111 -351.56,610.426 -351.56,500.22C-351.674,456.641 -366.093,414.282 -392.592,379.685C-337.521,401.49 -287.504,434.362 -245.64,476.263L-224.747,497.156C-210.594,511.263 -202.652,530.459 -202.699,550.443C-202.652,570.426 -210.594,589.622 -224.747,603.729Z" style="fill:rgb(179,179,179);fill-rule:nonzero;"/>
    </g>
</svg>
