<?xml version="1.0" encoding="UTF-8" standalone="no"?>
<!DOCTYPE svg PUBLIC "-//W3C//DTD SVG 1.1//EN" "http://www.w3.org/Graphics/SVG/1.1/DTD/svg11.dtd">
<svg width="100%" height="100%" viewBox="0 0 800 800" version="1.1" xmlns="http://www.w3.org/2000/svg" xmlns:xlink="http://www.w3.org/1999/xlink" xml:space="preserve" xmlns:serif="http://www.serif.com/" style="fill-rule:evenodd;clip-rule:evenodd;stroke-linejoin:round;stroke-miterlimit:1.41421;">
    <g id="Path_110" transform="matrix(1,0,0,1,-1150,2.95635e-08)">
        <path d="M1635.8,591.85L1676.95,633C1510.33,679.024 1331.24,631.623 1209.2,509.2L1188.4,488.4C1164.96,464.966 1151.78,433.145 1151.78,400C1151.78,366.855 1164.96,335.034 1188.4,311.6L1209.2,290.8C1230.33,269.801 1253.36,250.803 1278,234.05L1313.85,269.9C1288.89,286.241 1265.67,305.089 1244.55,326.15L1223.75,346.95C1209.68,361.011 1201.77,380.108 1201.77,400C1201.77,419.892 1209.68,438.989 1223.75,453.05L1244.55,473.85C1325.35,555.094 1435.42,600.679 1550,600.35C1578.81,600.355 1607.55,597.508 1635.8,591.85ZM1550,550C1563.43,550.001 1576.83,548.661 1590,546L1354,310C1351.31,323.164 1349.96,336.565 1349.96,350C1349.96,459.717 1440.24,550 1549.96,550C1549.97,550 1549.99,550 1550,550ZM1476.25,220C1498.65,206.989 1524.09,200.091 1550,200C1563.72,200 1575,211.285 1575,225C1575,238.715 1563.72,250 1550,250C1537.4,250.035 1524.93,252.479 1513.25,257.2L1716.55,460.5C1763.64,390.207 1760.65,297.128 1709.15,230C1763.97,251.694 1813.77,284.403 1855.45,326.1L1876.25,346.9C1890.32,360.961 1898.23,380.058 1898.23,399.95C1898.23,419.842 1890.32,438.939 1876.25,453L1855.45,473.8C1834.34,494.859 1811.12,513.692 1786.15,530L1822,565.9C1846.64,549.147 1869.67,530.149 1890.8,509.15L1911.6,488.35C1935.04,464.916 1948.22,433.095 1948.22,399.95C1948.22,366.805 1935.04,334.984 1911.6,311.55L1890.8,290.75C1768.75,168.345 1589.66,120.963 1423.05,167L1476.25,220ZM1192.7,7.3C1188.01,2.607 1181.64,-0.032 1175,-0.032C1161.27,-0.032 1149.97,11.268 1149.97,25C1149.97,31.636 1152.61,38.007 1157.3,42.7L1907.3,792.7C1911.99,797.393 1918.36,800.032 1925,800.032C1938.73,800.032 1950.03,788.732 1950.03,775C1950.03,768.364 1947.39,761.993 1942.7,757.3L1192.7,7.3Z" style="fill:rgb(179,179,179);fill-rule:nonzero;"/>
    </g>
</svg>
