<?xml version="1.0" encoding="UTF-8" standalone="no"?>
<!DOCTYPE svg PUBLIC "-//W3C//DTD SVG 1.1//EN" "http://www.w3.org/Graphics/SVG/1.1/DTD/svg11.dtd">
<svg width="100%" height="100%" viewBox="0 0 30 31" version="1.1" xmlns="http://www.w3.org/2000/svg" xmlns:xlink="http://www.w3.org/1999/xlink" xml:space="preserve" xmlns:serif="http://www.serif.com/" style="fill-rule:evenodd;clip-rule:evenodd;stroke-linejoin:round;stroke-miterlimit:1.41421;">
    <g transform="matrix(1,0,0,1,0.02676,-1.05508)">
        <path d="M24.15,10.574C24.311,10.735 24.402,10.952 24.402,11.179L24.402,27.698C24.402,28.172 24.019,28.555 23.545,28.555L6.402,28.555C5.928,28.555 5.545,28.172 5.545,27.698L5.545,5.412C5.545,4.938 5.928,4.555 6.402,4.555L17.778,4.555C18.005,4.555 18.225,4.646 18.386,4.807L24.15,10.574ZM22.425,11.573L17.384,6.532L17.384,11.573L22.425,11.573ZM9.83,15.752C9.774,15.752 9.719,15.774 9.679,15.814C9.639,15.854 9.616,15.909 9.616,15.966L9.616,17.252C9.616,17.308 9.639,17.363 9.679,17.403C9.719,17.443 9.774,17.466 9.83,17.466L20.116,17.466C20.173,17.466 20.227,17.443 20.268,17.403C20.308,17.363 20.33,17.308 20.33,17.252L20.33,15.966C20.33,15.909 20.308,15.854 20.268,15.814C20.227,15.774 20.173,15.752 20.116,15.752L9.83,15.752ZM9.83,19.394C9.774,19.394 9.719,19.417 9.679,19.457C9.639,19.497 9.616,19.552 9.616,19.609L9.616,20.894C9.616,20.951 9.639,21.006 9.679,21.046C9.719,21.086 9.774,21.109 9.83,21.109L14.759,21.109C14.816,21.109 14.87,21.086 14.911,21.046C14.951,21.006 14.973,20.951 14.973,20.894L14.973,19.609C14.973,19.552 14.951,19.497 14.911,19.457C14.87,19.417 14.816,19.394 14.759,19.394L9.83,19.394Z" style="fill:white;fill-rule:nonzero;"/>
    </g>
</svg>
