<svg width="20" height="21" viewBox="0 0 20 21" fill="none" xmlns="http://www.w3.org/2000/svg">
<path d="M9.96091 18.8334C5.38758 18.8334 1.66675 15.095 1.66675 10.5C1.66675 5.90504 5.40508 2.16671 10.0001 2.16671C14.5951 2.16671 18.3334 5.90504 18.3334 10.5C18.3334 15.095 14.5776 18.8334 9.96091 18.8334ZM10.0001 3.83337C6.32425 3.83337 3.33341 6.82421 3.33341 10.5C3.33341 14.1759 6.30591 17.1667 9.96091 17.1667C13.6592 17.1667 16.6667 14.1759 16.6667 10.5C16.6667 6.82421 13.6759 3.83337 10.0001 3.83337Z" fill="#00B9E1"/>
<path d="M9.16675 14.6665H10.8334V8.83317H9.16675V14.6665ZM9.16675 7.99984H10.8334V6.33317H9.16675V7.99984Z" fill="#00B9E1"/>
</svg>
