<svg width="246" height="50" viewBox="0 0 246 50" fill="none" xmlns="http://www.w3.org/2000/svg">
<g clip-path="url(#clip0_8_23)">
<path d="M73.1214 10C76.335 10 79.0049 10.8398 81.1309 12.5194C83.2569 14.199 84.6906 16.4766 85.4323 19.3522H80.9455C80.3275 17.7236 79.3386 16.4384 77.979 15.4968C76.6441 14.5298 75.0001 14.0463 73.0472 14.0463C71.4898 14.0463 70.0932 14.4408 68.8571 15.2296C67.6458 16.0185 66.6817 17.151 65.9648 18.627C65.2726 20.0775 64.9265 21.7825 64.9265 23.7421C64.9265 25.6761 65.2726 27.3812 65.9648 28.8572C66.6817 30.3077 67.6458 31.4275 68.8571 32.2163C70.0932 33.0052 71.4898 33.3997 73.0472 33.3997C75.0001 33.3997 76.6441 32.9289 77.979 31.9873C79.3386 31.0202 80.3275 29.7351 80.9455 28.1319H85.4323C84.6906 31.0076 83.2569 33.2852 81.1309 34.9648C79.0049 36.6189 76.335 37.446 73.1214 37.446C70.6494 37.446 68.4616 36.8734 66.5581 35.7282C64.6546 34.5576 63.1837 32.9416 62.1455 30.8803C61.1072 28.7936 60.5881 26.4141 60.5881 23.7421C60.5881 21.07 61.1072 18.7033 62.1455 16.642C63.1837 14.5553 64.6546 12.9265 66.5581 11.7559C68.4616 10.5853 70.6494 10 73.1214 10ZM98.9939 15.9167C100.972 15.9167 102.752 16.3494 104.334 17.2146C105.916 18.0798 107.152 19.3268 108.042 20.9555C108.932 22.5841 109.377 24.4928 109.377 26.6813C109.377 28.8953 108.932 30.8167 108.042 32.4454C107.152 34.074 105.916 35.3211 104.334 36.1863C102.752 37.0515 100.972 37.4841 98.9939 37.4841C97.0169 37.4841 95.237 37.0515 93.6543 36.1863C92.0969 35.3211 90.8613 34.074 89.9465 32.4454C89.0566 30.7912 88.6116 28.8699 88.6116 26.6813C88.6116 24.4928 89.0566 22.5841 89.9465 20.9555C90.8613 19.3268 92.0969 18.0798 93.6543 17.2146C95.237 16.3494 97.0169 15.9167 98.9939 15.9167ZM98.9939 19.6958C97.9068 19.6958 96.9056 19.9502 95.9904 20.4592C95.076 20.9682 94.3344 21.7571 93.7655 22.8259C93.222 23.8693 92.9497 25.1544 92.9497 26.6813C92.9497 28.2337 93.222 29.5315 93.7655 30.5749C94.3344 31.6183 95.076 32.3945 95.9904 32.9035C96.9056 33.4124 97.9068 33.6669 98.9939 33.6669C100.082 33.6669 101.083 33.4124 101.997 32.9035C102.913 32.3945 103.642 31.6183 104.185 30.5749C104.754 29.5315 105.038 28.2337 105.038 26.6813C105.038 25.1544 104.754 23.8693 104.185 22.8259C103.642 21.7571 102.913 20.9682 101.997 20.4592C101.083 19.9502 100.082 19.6958 98.9939 19.6958ZM138.99 15.8404C141.413 15.8404 143.341 16.6292 144.774 18.2071C146.233 19.7849 146.962 22.0371 146.962 24.9636V37.2169H142.735V25.4217C142.735 23.5894 142.29 22.177 141.4 21.1845C140.51 20.1666 139.286 19.6576 137.729 19.6576C136.073 19.6576 134.75 20.2048 133.761 21.299C132.797 22.3679 132.315 23.9457 132.315 26.0324V37.2169H128.088V25.4217C128.088 23.5894 127.643 22.177 126.753 21.1845C125.863 20.1666 124.639 19.6576 123.082 19.6576C121.426 19.6576 120.103 20.2048 119.114 21.299C118.15 22.3679 117.668 23.9457 117.668 26.0324V37.2169H113.441V16.1839H117.668V20.5738C118.187 19.0469 119.053 17.8763 120.264 17.0619C121.475 16.2475 122.897 15.8404 124.528 15.8404C126.234 15.8404 127.704 16.273 128.941 17.1382C130.202 18.0035 131.116 19.2505 131.685 20.8791C132.278 19.3013 133.23 18.0671 134.54 17.1764C135.851 16.2857 137.334 15.8404 138.99 15.8404ZM163.616 15.9167C165.396 15.9167 166.978 16.3494 168.362 17.2146C169.771 18.0798 170.871 19.3268 171.662 20.9555C172.453 22.5841 172.849 24.4928 172.849 26.6813C172.849 28.8953 172.453 30.8167 171.662 32.4454C170.871 34.074 169.771 35.3211 168.362 36.1863C166.978 37.0515 165.396 37.4841 163.616 37.4841C161.762 37.4841 160.179 37.0133 158.87 36.0718C157.559 35.1302 156.645 33.8832 156.126 32.3309V47.2181H151.898V16.1839H156.126V21.07C156.645 19.5177 157.559 18.2707 158.87 17.3291C160.179 16.3875 161.762 15.9167 163.616 15.9167ZM162.318 19.734C161.132 19.734 160.068 20.0266 159.129 20.6119C158.189 21.1718 157.448 21.9861 156.904 23.055C156.36 24.0984 156.089 25.3071 156.089 26.6813C156.089 28.081 156.36 29.3025 156.904 30.3459C157.448 31.3893 158.189 32.2036 159.129 32.7889C160.068 33.3488 161.132 33.6287 162.318 33.6287C164.197 33.6287 165.704 33.018 166.842 31.7965C167.979 30.5495 168.548 28.8444 168.548 26.6813C168.548 24.5437 167.979 22.8514 166.842 21.6044C165.704 20.3575 164.197 19.734 162.318 19.734ZM185.116 15.9167C186.97 15.9167 188.551 16.3875 189.862 17.3291C191.172 18.2707 192.099 19.5177 192.643 21.07V16.1839H196.87V37.2169H192.643V32.3309C192.099 33.8832 191.172 35.1302 189.862 36.0718C188.551 37.0133 186.97 37.4841 185.116 37.4841C183.336 37.4841 181.741 37.0515 180.332 36.1863C178.948 35.3211 177.86 34.074 177.069 32.4454C176.278 30.8167 175.882 28.8953 175.882 26.6813C175.882 24.4928 176.278 22.5841 177.069 20.9555C177.86 19.3268 178.948 18.0798 180.332 17.2146C181.741 16.3494 183.336 15.9167 185.116 15.9167ZM186.413 19.734C184.534 19.734 183.026 20.3575 181.89 21.6044C180.777 22.8259 180.221 24.5183 180.221 26.6813C180.221 28.8444 180.777 30.5495 181.89 31.7965C183.026 33.018 184.534 33.6287 186.413 33.6287C187.6 33.6287 188.663 33.3488 189.602 32.7889C190.541 32.2036 191.283 31.3893 191.827 30.3459C192.371 29.3025 192.643 28.081 192.643 26.6813C192.643 25.3071 192.371 24.0984 191.827 23.055C191.283 21.9861 190.541 21.1718 189.602 20.6119C188.663 20.0266 187.6 19.734 186.413 19.734ZM213.364 15.8404C215.737 15.8404 217.64 16.6292 219.074 18.2071C220.508 19.7849 221.225 22.0371 221.225 24.9636V37.2169H216.998V25.4217C216.998 23.5385 216.528 22.0879 215.589 21.07C214.649 20.0266 213.364 19.5049 211.732 19.5049C210.051 19.5049 208.704 20.0648 207.691 21.1845C206.677 22.2788 206.17 23.8948 206.17 26.0324V37.2169H201.943V16.1839H206.17V20.8028C206.714 19.225 207.628 18.0035 208.914 17.1382C210.2 16.273 211.683 15.8404 213.364 15.8404ZM228.579 16.1839L234.697 31.6438L240.371 16.1839H245.08L232.732 47.2181H228.023L232.435 36.7207L223.833 16.1839H228.579Z" fill="white"/>
<path d="M47 3H3V47H47V3Z" stroke="white" stroke-width="6"/>
<path d="M35 15H15V35H35V15Z" fill="white"/>
</g>
<defs>
<clipPath id="clip0_8_23">
<rect width="246" height="50" fill="white"/>
</clipPath>
</defs>
</svg>
