<?xml version="1.0" encoding="UTF-8" standalone="no"?>
<!DOCTYPE svg PUBLIC "-//W3C//DTD SVG 1.1//EN" "http://www.w3.org/Graphics/SVG/1.1/DTD/svg11.dtd">
<svg width="100%" height="100%" viewBox="0 0 39 39" version="1.1" xmlns="http://www.w3.org/2000/svg" xmlns:xlink="http://www.w3.org/1999/xlink" xml:space="preserve" xmlns:serif="http://www.serif.com/" style="fill-rule:evenodd;clip-rule:evenodd;stroke-linejoin:round;stroke-miterlimit:1.41421;">
    <g transform="matrix(1,0,0,1,-0.00134648,0.0012)">
        <path d="M19.532,4.875C15.862,4.875 12.518,6.087 10.54,7.078C10.361,7.167 10.194,7.255 10.039,7.339C9.732,7.507 9.47,7.663 9.262,7.8L11.513,11.113L12.573,11.535C16.713,13.624 22.266,13.624 26.407,11.535L27.61,10.911L29.738,7.8C29.297,7.512 28.838,7.253 28.365,7.022C26.397,6.043 23.133,4.875 19.533,4.875L19.532,4.875ZM14.298,8.626C13.501,8.476 12.713,8.279 11.941,8.034C13.794,7.211 16.556,6.338 19.532,6.338C21.593,6.338 23.542,6.757 25.154,7.288C23.265,7.554 21.249,8.005 19.328,8.56C17.817,8.997 16.051,8.95 14.298,8.626ZM27.265,12.74L27.065,12.841C22.51,15.139 16.469,15.139 11.914,12.841L11.724,12.745C4.881,20.253 -0.343,34.123 19.532,34.123C39.406,34.123 34.054,19.994 27.265,12.74ZM18.688,19.5C18.257,19.5 17.843,19.671 17.538,19.976C17.234,20.281 17.063,20.694 17.063,21.125C17.063,21.556 17.234,21.969 17.538,22.274C17.843,22.579 18.257,22.75 18.688,22.75L18.688,19.5ZM20.313,17.875L20.313,17.063L18.688,17.063L18.688,17.875C17.826,17.875 16.999,18.217 16.389,18.827C15.78,19.436 15.438,20.263 15.438,21.125C15.438,21.987 15.78,22.814 16.389,23.423C16.999,24.033 17.826,24.375 18.688,24.375L18.688,27.625C17.981,27.625 17.379,27.174 17.154,26.542C17.121,26.439 17.067,26.343 16.996,26.261C16.926,26.178 16.839,26.111 16.741,26.063C16.644,26.015 16.538,25.986 16.43,25.98C16.321,25.973 16.213,25.988 16.11,26.025C16.008,26.061 15.914,26.117 15.833,26.19C15.753,26.264 15.688,26.352 15.643,26.451C15.597,26.55 15.572,26.656 15.569,26.765C15.565,26.874 15.584,26.982 15.623,27.083C15.847,27.717 16.262,28.266 16.811,28.654C17.36,29.042 18.015,29.25 18.688,29.25L18.688,30.063L20.313,30.063L20.313,29.25C21.174,29.25 22.001,28.908 22.611,28.298C23.22,27.689 23.563,26.862 23.563,26C23.563,25.138 23.22,24.311 22.611,23.702C22.001,23.092 21.174,22.75 20.313,22.75L20.313,19.5C21.019,19.5 21.621,19.951 21.846,20.583C21.879,20.687 21.933,20.782 22.004,20.865C22.074,20.947 22.161,21.014 22.258,21.062C22.356,21.11 22.462,21.139 22.57,21.145C22.679,21.152 22.787,21.137 22.89,21.1C22.992,21.064 23.086,21.008 23.167,20.935C23.247,20.861 23.312,20.773 23.357,20.674C23.403,20.575 23.428,20.469 23.431,20.36C23.435,20.252 23.416,20.143 23.377,20.042C23.153,19.408 22.738,18.86 22.189,18.472C21.64,18.083 20.985,17.875 20.313,17.875ZM20.313,24.375L20.313,27.625C20.743,27.625 21.157,27.454 21.462,27.149C21.766,26.844 21.938,26.431 21.938,26C21.938,25.569 21.766,25.156 21.462,24.851C21.157,24.546 20.743,24.375 20.313,24.375Z" style="fill:url(#_Linear1);"/>
    </g>
    <defs>
        <linearGradient id="_Linear1" x1="0" y1="0" x2="1" y2="0" gradientUnits="userSpaceOnUse" gradientTransform="matrix(5.7537,37.1748,-37.1748,5.7537,-41.3642,6.64758)"><stop offset="0" style="stop-color:rgb(129,68,221);stop-opacity:1"/><stop offset="1" style="stop-color:rgb(93,213,233);stop-opacity:1"/><stop offset="1" style="stop-color:white;stop-opacity:0"/></linearGradient>
    </defs>
</svg>
