<?xml version="1.0" encoding="UTF-8" standalone="no"?>
<!DOCTYPE svg PUBLIC "-//W3C//DTD SVG 1.1//EN" "http://www.w3.org/Graphics/SVG/1.1/DTD/svg11.dtd">
<svg width="100%" height="100%" viewBox="0 0 39 39" version="1.1" xmlns="http://www.w3.org/2000/svg" xmlns:xlink="http://www.w3.org/1999/xlink" xml:space="preserve" xmlns:serif="http://www.serif.com/" style="fill-rule:evenodd;clip-rule:evenodd;stroke-linejoin:round;stroke-miterlimit:1.41421;">
    <g transform="matrix(1,0,0,1,3.08362,2.01241)">
        <path d="M29.531,27.344C29.532,28.147 29.355,28.941 29.014,29.669C28.673,30.397 28.175,31.04 27.557,31.554C26.939,32.067 26.215,32.438 25.438,32.641C24.66,32.843 23.847,32.871 23.057,32.723C22.267,32.575 21.519,32.255 20.867,31.786C20.215,31.316 19.674,30.708 19.283,30.006C18.893,29.304 18.662,28.524 18.607,27.722C18.552,26.92 18.674,26.116 18.965,25.367L12.662,21.316C11.903,22.095 10.929,22.63 9.865,22.853C8.8,23.076 7.693,22.976 6.685,22.566C5.678,22.157 4.815,21.456 4.208,20.553C3.6,19.651 3.276,18.588 3.276,17.5C3.276,16.412 3.6,15.349 4.208,14.447C4.815,13.544 5.678,12.843 6.685,12.434C7.693,12.024 8.8,11.924 9.865,12.147C10.929,12.37 11.903,12.905 12.662,13.685L18.965,9.633C18.471,8.367 18.466,6.962 18.949,5.692C19.433,4.422 20.37,3.376 21.581,2.758C22.791,2.141 24.188,1.994 25.5,2.348C26.813,2.701 27.947,3.53 28.683,4.672C29.419,5.814 29.705,7.19 29.484,8.531C29.264,9.872 28.554,11.083 27.491,11.93C26.428,12.777 25.089,13.199 23.732,13.115C22.376,13.03 21.099,12.444 20.15,11.472L13.848,15.523C14.342,16.795 14.342,18.205 13.848,19.477L20.15,23.528C20.908,22.749 21.882,22.214 22.947,21.991C24.011,21.768 25.118,21.868 26.125,22.278C27.132,22.687 27.995,23.388 28.601,24.291C29.208,25.193 29.532,26.256 29.531,27.344Z" style="fill:url(#_Linear1);fill-rule:nonzero;"/>
    </g>
    <defs>
        <linearGradient id="_Linear1" x1="0" y1="0" x2="1" y2="0" gradientUnits="userSpaceOnUse" gradientTransform="matrix(6.6587,38.756,-38.756,6.6587,-41.0567,4.01696)"><stop offset="0" style="stop-color:rgb(129,68,221);stop-opacity:1"/><stop offset="1" style="stop-color:rgb(93,213,233);stop-opacity:1"/><stop offset="1" style="stop-color:white;stop-opacity:0"/></linearGradient>
    </defs>
</svg>
