<svg width="29" height="29" viewBox="0 0 29 29" fill="none" xmlns="http://www.w3.org/2000/svg">
<path d="M14.5 27.6144C15.0074 27.6028 15.4944 27.412 15.8747 27.0759C16.2551 26.7397 16.5043 26.2799 16.5783 25.7778H12.3411C12.4172 26.2936 12.678 26.7642 13.0752 27.102C13.4723 27.4399 13.9786 27.622 14.5 27.6144Z" fill="#999999"/>
<path d="M26.1887 22.4186C25.4119 21.7261 24.7318 20.9322 24.1668 20.0583C23.5499 18.8521 23.1801 17.5347 23.0793 16.1836V12.2042C23.076 11.7208 23.0329 11.2385 22.9504 10.7622C22.3163 10.6355 21.707 10.407 21.1459 10.0856C21.3598 10.7742 21.4684 11.4912 21.4681 12.2122V16.1917C21.5669 17.8399 22.0203 19.4473 22.7973 20.9042C23.3535 21.7854 24.0134 22.5968 24.7629 23.3208H4.13259C4.88208 22.5968 5.54199 21.7854 6.09814 20.9042C6.87519 19.4473 7.32857 17.8399 7.42731 16.1917V12.2042C7.42307 11.2719 7.60277 10.3479 7.95611 9.48519C8.30945 8.62246 8.8295 7.83789 9.48648 7.17642C10.1435 6.51495 10.9245 5.98957 11.7848 5.63036C12.6451 5.27115 13.5678 5.08517 14.5001 5.08306C15.8645 5.08415 17.1983 5.48765 18.3345 6.24306C18.2093 5.78307 18.139 5.30987 18.1251 4.83333V4.32583C17.284 3.91207 16.3804 3.63989 15.4506 3.52028V2.50528C15.4506 2.22006 15.3373 1.94652 15.1357 1.74484C14.934 1.54316 14.6604 1.42986 14.3752 1.42986C14.09 1.42986 13.8165 1.54316 13.6148 1.74484C13.4131 1.94652 13.2998 2.22006 13.2998 2.50528V3.56056C11.218 3.85422 9.31277 4.89113 7.93579 6.47984C6.55881 8.06854 5.80309 10.1018 5.80814 12.2042V16.1836C5.70725 17.5347 5.33752 18.8521 4.72064 20.0583C4.16552 20.9302 3.49635 21.724 2.73092 22.4186C2.64499 22.4941 2.57613 22.587 2.5289 22.6912C2.48168 22.7954 2.45718 22.9084 2.45703 23.0228V24.1183C2.45703 24.332 2.5419 24.5369 2.69297 24.6879C2.84404 24.839 3.04894 24.9239 3.26259 24.9239H25.657C25.8707 24.9239 26.0756 24.839 26.2266 24.6879C26.3777 24.5369 26.4626 24.332 26.4626 24.1183V23.0228C26.4624 22.9084 26.4379 22.7954 26.3907 22.6912C26.3435 22.587 26.2746 22.4941 26.1887 22.4186Z" fill="#999999"/>
<path d="M24.1667 8.86111C26.3912 8.86111 28.1945 7.05781 28.1945 4.83333C28.1945 2.60885 26.3912 0.805555 24.1667 0.805555C21.9422 0.805555 20.1389 2.60885 20.1389 4.83333C20.1389 7.05781 21.9422 8.86111 24.1667 8.86111Z" fill="#FF4747"/>
</svg>
