<svg width="15" height="15" viewBox="0 0 15 15" fill="none" xmlns="http://www.w3.org/2000/svg">
<path d="M4.53051 7.64472L1.65017 4.76438C0.516238 6.00051 0.086537 7.23889 0.0790769 7.26425L0 7.49999L0.0783309 7.73573C0.0947431 7.78571 1.80609 12.7221 7.50037 12.7221C8.19341 12.7221 8.82454 12.646 9.40419 12.5184L7.35565 10.4699C6.61805 10.4337 5.92029 10.1244 5.39811 9.60226C4.87592 9.08007 4.56667 8.38231 4.53051 7.64472ZM7.50037 2.27793C6.11653 2.27793 4.98259 2.57932 4.0374 3.02245L1.27344 0.258484L0.218581 1.31334L13.6467 14.7415L14.7016 13.6866L12.2413 11.2263C14.2092 9.76935 14.9112 7.76706 14.9217 7.73573L15 7.49999L14.9217 7.26425C14.9053 7.21427 13.1947 2.27793 7.50037 2.27793ZM8.92227 7.90731C9.06177 7.40226 8.94315 6.83381 8.55523 6.44514C8.1673 6.05646 7.5981 5.93859 7.09305 6.0781L5.96807 4.95312C6.42908 4.66962 6.95918 4.51838 7.50037 4.51596C9.14607 4.51596 10.4844 5.8543 10.4844 7.49999C10.4822 8.04109 10.3307 8.57107 10.0465 9.03155L8.92227 7.90731Z" fill="#B3B3B3"/>
</svg>
