<?xml version="1.0" encoding="UTF-8" standalone="no"?>
<!DOCTYPE svg PUBLIC "-//W3C//DTD SVG 1.1//EN" "http://www.w3.org/Graphics/SVG/1.1/DTD/svg11.dtd">
<svg width="100%" height="100%" viewBox="0 0 39 39" version="1.1" xmlns="http://www.w3.org/2000/svg" xmlns:xlink="http://www.w3.org/1999/xlink" xml:space="preserve" xmlns:serif="http://www.serif.com/" style="fill-rule:evenodd;clip-rule:evenodd;stroke-linejoin:round;stroke-miterlimit:1.41421;">
    <g transform="matrix(1,0,0,1,2,5.5)">
        <path d="M35,0L35,28L0.56,28C0.003,28 -0.168,27.634 0.182,27.186L8.002,17.127C8.081,17.022 8.181,16.935 8.296,16.872C8.41,16.808 8.537,16.77 8.668,16.76C8.799,16.75 8.93,16.767 9.054,16.812C9.177,16.857 9.289,16.927 9.383,17.019L11.867,19.353C11.956,19.444 12.065,19.513 12.186,19.555C12.307,19.597 12.435,19.61 12.562,19.593C12.688,19.577 12.809,19.532 12.916,19.461C13.022,19.39 13.11,19.296 13.174,19.185L18.506,10.89C18.569,10.78 18.657,10.687 18.763,10.617C18.868,10.546 18.989,10.502 19.115,10.487C19.241,10.471 19.369,10.486 19.488,10.528C19.607,10.571 19.715,10.641 19.803,10.733L23.602,14.401C24.008,14.794 24.58,14.716 24.869,14.226L33.852,0.602C34.142,0.109 34.562,0 35,0Z" style="fill:url(#_Linear1);fill-rule:nonzero;"/>
    </g>
    <defs>
        <linearGradient id="_Linear1" x1="0" y1="0" x2="1" y2="0" gradientUnits="userSpaceOnUse" gradientTransform="matrix(4.235,35.9426,-35.9426,4.235,-59.0399,1.69697)"><stop offset="0" style="stop-color:rgb(129,68,221);stop-opacity:1"/><stop offset="1" style="stop-color:rgb(93,213,233);stop-opacity:1"/><stop offset="1" style="stop-color:white;stop-opacity:0"/></linearGradient>
    </defs>
</svg>
