<?xml version="1.0" encoding="UTF-8" standalone="no"?>
<!DOCTYPE svg PUBLIC "-//W3C//DTD SVG 1.1//EN" "http://www.w3.org/Graphics/SVG/1.1/DTD/svg11.dtd">
<svg width="100%" height="100%" viewBox="0 0 17 17" version="1.1" xmlns="http://www.w3.org/2000/svg" xmlns:xlink="http://www.w3.org/1999/xlink" xml:space="preserve" xmlns:serif="http://www.serif.com/" style="fill-rule:evenodd;clip-rule:evenodd;stroke-linejoin:round;stroke-miterlimit:1.41421;">
    <g transform="matrix(1,0,0,1,7.0403e-05,-0.000324597)">
        <path d="M11.564,10.554L15.374,14.364C15.508,14.498 15.584,14.68 15.584,14.87C15.584,15.059 15.508,15.241 15.374,15.375C15.24,15.509 15.058,15.584 14.869,15.584C14.679,15.584 14.498,15.508 14.364,15.374L10.553,11.564C9.414,12.446 7.981,12.861 6.547,12.725C5.112,12.588 3.783,11.911 2.831,10.829C1.878,9.748 1.374,8.345 1.419,6.905C1.465,5.464 2.057,4.095 3.076,3.077C4.095,2.058 5.464,1.465 6.904,1.42C8.344,1.374 9.748,1.879 10.829,2.832C11.91,3.784 12.588,5.113 12.724,6.547C12.861,7.982 12.445,9.414 11.563,10.554L11.564,10.554ZM7.083,11.333C8.211,11.333 9.292,10.886 10.089,10.089C10.886,9.292 11.334,8.211 11.334,7.083C11.334,5.956 10.886,4.875 10.089,4.078C9.292,3.281 8.211,2.833 7.083,2.833C5.956,2.833 4.875,3.281 4.078,4.078C3.281,4.875 2.833,5.956 2.833,7.083C2.833,8.211 3.281,9.292 4.078,10.089C4.875,10.886 5.956,11.333 7.083,11.333Z" style="fill:rgb(153,153,153);"/>
    </g>
</svg>
