<?xml version="1.0" encoding="UTF-8" standalone="no"?>
<!DOCTYPE svg PUBLIC "-//W3C//DTD SVG 1.1//EN" "http://www.w3.org/Graphics/SVG/1.1/DTD/svg11.dtd">
<svg width="100%" height="100%" viewBox="0 0 30 31" version="1.1" xmlns="http://www.w3.org/2000/svg" xmlns:xlink="http://www.w3.org/1999/xlink" xml:space="preserve" xmlns:serif="http://www.serif.com/" style="fill-rule:evenodd;clip-rule:evenodd;stroke-linejoin:round;stroke-miterlimit:1.41421;">
    <g transform="matrix(1,0,0,1,1.2612,0.863952)">
        <path d="M13.743,11.433C12.957,11.433 12.221,11.738 11.663,12.295C11.108,12.853 10.8,13.589 10.8,14.375C10.8,15.162 11.108,15.898 11.663,16.455C12.221,17.01 12.957,17.318 13.743,17.318C14.529,17.318 15.266,17.01 15.823,16.455C16.378,15.898 16.686,15.162 16.686,14.375C16.686,13.589 16.378,12.853 15.823,12.295C15.551,12.021 15.227,11.803 14.87,11.655C14.513,11.507 14.13,11.431 13.743,11.433ZM24.585,17.626L22.866,16.156C22.947,15.656 22.989,15.146 22.989,14.638C22.989,14.131 22.947,13.618 22.866,13.121L24.585,11.651C24.715,11.54 24.808,11.392 24.852,11.226C24.896,11.061 24.888,10.886 24.83,10.725L24.806,10.657C24.333,9.333 23.624,8.106 22.713,7.036L22.666,6.98C22.555,6.85 22.408,6.757 22.243,6.712C22.078,6.668 21.904,6.674 21.743,6.731L19.607,7.491C18.818,6.844 17.94,6.334 16.988,5.979L16.575,3.746C16.544,3.578 16.463,3.423 16.341,3.302C16.22,3.182 16.065,3.101 15.897,3.07L15.826,3.057C14.458,2.81 13.017,2.81 11.65,3.057L11.579,3.07C11.411,3.101 11.256,3.182 11.134,3.302C11.013,3.423 10.932,3.578 10.9,3.746L10.485,5.989C9.542,6.347 8.664,6.856 7.884,7.496L5.733,6.731C5.572,6.674 5.397,6.667 5.233,6.712C5.068,6.756 4.92,6.85 4.81,6.98L4.763,7.036C3.853,8.108 3.144,9.334 2.669,10.657L2.646,10.725C2.527,11.054 2.625,11.422 2.89,11.651L4.631,13.137C4.55,13.631 4.51,14.136 4.51,14.636C4.51,15.14 4.55,15.645 4.631,16.134L2.896,17.62C2.766,17.732 2.673,17.88 2.629,18.045C2.585,18.21 2.593,18.385 2.651,18.546L2.675,18.614C3.151,19.937 3.853,21.16 4.768,22.235L4.815,22.291C4.926,22.421 5.073,22.514 5.238,22.559C5.403,22.603 5.577,22.597 5.738,22.541L7.889,21.775C8.673,22.42 9.546,22.93 10.49,23.282L10.906,25.525C10.937,25.693 11.018,25.848 11.14,25.969C11.261,26.09 11.416,26.171 11.584,26.201L11.655,26.214C13.036,26.463 14.45,26.463 15.831,26.214L15.902,26.201C16.07,26.171 16.225,26.09 16.347,25.969C16.468,25.848 16.549,25.693 16.581,25.525L16.993,23.293C17.945,22.935 18.824,22.427 19.613,21.781L21.748,22.541C21.909,22.597 22.084,22.604 22.248,22.559C22.413,22.515 22.561,22.421 22.671,22.291L22.718,22.235C23.633,21.155 24.336,19.937 24.812,18.614L24.835,18.546C24.948,18.22 24.851,17.854 24.585,17.626ZM13.743,18.998C11.19,18.998 9.12,16.929 9.12,14.375C9.12,11.822 11.19,9.752 13.743,9.752C16.297,9.752 18.366,11.822 18.366,14.375C18.366,16.929 16.297,18.998 13.743,18.998Z" style="fill:white;fill-rule:nonzero;"/>
    </g>
</svg>
