<?xml version="1.0" encoding="UTF-8" standalone="no"?>
<!DOCTYPE svg PUBLIC "-//W3C//DTD SVG 1.1//EN" "http://www.w3.org/Graphics/SVG/1.1/DTD/svg11.dtd">
<svg width="100%" height="100%" viewBox="0 0 30 30" version="1.1" xmlns="http://www.w3.org/2000/svg" xmlns:xlink="http://www.w3.org/1999/xlink" xml:space="preserve" xmlns:serif="http://www.serif.com/" style="fill-rule:evenodd;clip-rule:evenodd;stroke-linejoin:round;stroke-miterlimit:1.41421;">
    <g transform="matrix(1,0,0,1,0.856105,1.30138)">
        <path d="M23.134,25.685L5.154,25.685C4.327,25.685 3.621,25.392 3.036,24.807C2.45,24.222 2.158,23.516 2.158,22.688L2.158,4.709C2.158,3.882 2.45,3.176 3.036,2.59C3.621,2.005 4.327,1.712 5.154,1.712L23.134,1.712C23.961,1.712 24.667,2.005 25.252,2.59C25.838,3.176 26.13,3.882 26.13,4.709L26.13,22.688C26.13,23.516 25.838,24.222 25.252,24.807C24.667,25.392 23.961,25.685 23.134,25.685ZM9.649,18.943C9.649,18.74 9.575,18.564 9.427,18.416C9.278,18.268 9.103,18.194 8.9,18.194L7.402,18.194C7.199,18.194 7.023,18.268 6.875,18.416C6.727,18.564 6.652,18.74 6.652,18.943L6.652,21.939C6.652,22.142 6.727,22.318 6.875,22.466C7.023,22.614 7.199,22.688 7.402,22.688L8.9,22.688C9.103,22.688 9.278,22.614 9.427,22.466C9.575,22.318 9.649,22.142 9.649,21.939L9.649,18.943ZM15.642,12.95C15.642,12.747 15.568,12.571 15.42,12.423C15.272,12.275 15.096,12.2 14.893,12.2L13.395,12.2C13.192,12.2 13.016,12.275 12.868,12.423C12.72,12.571 12.646,12.747 12.646,12.95L12.646,21.939C12.646,22.142 12.72,22.318 12.868,22.466C13.016,22.614 13.192,22.688 13.395,22.688L14.893,22.688C15.096,22.688 15.272,22.614 15.42,22.466C15.568,22.318 15.642,22.142 15.642,21.939L15.642,12.95ZM21.635,5.458C21.635,5.255 21.561,5.08 21.413,4.931C21.265,4.783 21.089,4.709 20.886,4.709L19.388,4.709C19.185,4.709 19.009,4.783 18.861,4.931C18.713,5.08 18.639,5.255 18.639,5.458L18.639,21.939C18.639,22.142 18.713,22.318 18.861,22.466C19.009,22.614 19.185,22.688 19.388,22.688L20.886,22.688C21.089,22.688 21.265,22.614 21.413,22.466C21.561,22.318 21.635,22.142 21.635,21.939L21.635,5.458Z" style="fill:white;fill-rule:nonzero;"/>
    </g>
</svg>
