<?xml version="1.0" encoding="UTF-8" standalone="no"?>
<!DOCTYPE svg PUBLIC "-//W3C//DTD SVG 1.1//EN" "http://www.w3.org/Graphics/SVG/1.1/DTD/svg11.dtd">
<svg width="100%" height="100%" viewBox="0 0 30 30" version="1.1" xmlns="http://www.w3.org/2000/svg" xmlns:xlink="http://www.w3.org/1999/xlink" xml:space="preserve" xmlns:serif="http://www.serif.com/" style="fill-rule:evenodd;clip-rule:evenodd;stroke-linejoin:round;stroke-miterlimit:1.41421;">
    <g>
        <path d="M10,13.45L9.275,13.45C8.286,13.414 7.299,13.582 6.378,13.943C5.456,14.305 4.618,14.852 3.917,15.55L3.717,15.783L3.717,22.683L7.117,22.683L7.117,18.767L7.575,18.25L7.783,18.008C8.868,16.894 10.219,16.074 11.708,15.625C10.963,15.058 10.375,14.309 10,13.45Z" style="fill:white;fill-rule:nonzero;"/>
        <path d="M26.117,15.525C25.415,14.826 24.577,14.28 23.656,13.918C22.734,13.557 21.748,13.389 20.758,13.425C20.455,13.426 20.152,13.443 19.85,13.475C19.468,14.281 18.896,14.982 18.183,15.517C19.773,15.957 21.214,16.821 22.35,18.017L22.558,18.25L23.008,18.767L23.008,22.692L26.292,22.692L26.292,15.758L26.117,15.525Z" style="fill:white;fill-rule:nonzero;"/>
        <path d="M9.25,11.825L9.508,11.825C9.388,10.794 9.569,9.751 10.029,8.821C10.489,7.891 11.208,7.114 12.1,6.583C11.777,6.089 11.331,5.688 10.806,5.418C10.281,5.149 9.695,5.02 9.105,5.045C8.515,5.07 7.942,5.247 7.441,5.56C6.941,5.873 6.53,6.311 6.25,6.83C5.969,7.349 5.828,7.932 5.841,8.523C5.853,9.113 6.019,9.69 6.321,10.196C6.624,10.703 7.053,11.123 7.566,11.414C8.08,11.706 8.66,11.859 9.25,11.858L9.25,11.825Z" style="fill:white;fill-rule:nonzero;"/>
        <path d="M20.358,11.2C20.368,11.392 20.368,11.584 20.358,11.775C20.518,11.8 20.68,11.814 20.842,11.817L21,11.817C21.588,11.785 22.157,11.602 22.653,11.286C23.149,10.969 23.555,10.529 23.83,10.009C24.106,9.489 24.242,8.906 24.226,8.318C24.209,7.73 24.041,7.156 23.737,6.652C23.432,6.148 23.003,5.732 22.49,5.443C21.977,5.154 21.398,5.003 20.81,5.005C20.221,5.006 19.643,5.16 19.132,5.451C18.621,5.743 18.193,6.161 17.892,6.667C18.646,7.159 19.266,7.831 19.697,8.622C20.127,9.414 20.354,10.299 20.358,11.2Z" style="fill:white;fill-rule:nonzero;"/>
        <path d="M14.892,14.933C16.949,14.933 18.617,13.266 18.617,11.208C18.617,9.151 16.949,7.483 14.892,7.483C12.834,7.483 11.167,9.151 11.167,11.208C11.167,13.266 12.834,14.933 14.892,14.933Z" style="fill:white;fill-rule:nonzero;"/>
        <path d="M15.092,16.917C14.003,16.873 12.918,17.049 11.899,17.436C10.881,17.823 9.952,18.411 9.167,19.167L8.958,19.4L8.958,24.675C8.962,24.847 8.999,25.016 9.067,25.174C9.136,25.331 9.235,25.474 9.359,25.593C9.483,25.712 9.629,25.806 9.789,25.868C9.949,25.931 10.12,25.962 10.292,25.958L19.867,25.958C20.039,25.962 20.209,25.931 20.369,25.868C20.529,25.806 20.675,25.712 20.799,25.593C20.923,25.474 21.022,25.331 21.091,25.174C21.16,25.016 21.197,24.847 21.2,24.675L21.2,19.417L21,19.167C20.22,18.409 19.294,17.819 18.278,17.432C17.262,17.045 16.178,16.87 15.092,16.917Z" style="fill:white;fill-rule:nonzero;"/>
    </g>
</svg>
