<svg width="20" height="21" viewBox="0 0 20 21" fill="none" xmlns="http://www.w3.org/2000/svg">
<path d="M9.16758 8.83337H10.8342V13H9.16758V8.83337ZM9.16675 13.8334H10.8334V15.5H9.16675V13.8334Z" fill="#FFA800"/>
<path d="M11.4734 3.99999C11.1834 3.45416 10.6184 3.11499 10 3.11499C9.3817 3.11499 8.81671 3.45416 8.52671 4.00082L2.41171 15.5533C2.27601 15.807 2.2088 16.0917 2.21669 16.3793C2.22458 16.6669 2.3073 16.9475 2.45671 17.1933C2.60395 17.4403 2.81307 17.6446 3.06341 17.7861C3.31375 17.9275 3.59666 18.0013 3.88421 18H16.1159C16.7059 18 17.24 17.6983 17.5442 17.1933C17.6934 16.9474 17.776 16.6668 17.7838 16.3793C17.7917 16.0917 17.7247 15.8071 17.5892 15.5533L11.4734 3.99999ZM3.88421 16.3333L10 4.78082L16.12 16.3333H3.88421Z" fill="#FFA800"/>
</svg>
